<?xml version="1.0" standalone="no"?>
<!DOCTYPE svg PUBLIC "-//W3C//DTD SVG 20010904//EN"
 "http://www.w3.org/TR/2001/REC-SVG-20010904/DTD/svg10.dtd">
<svg version="1.0" xmlns="http://www.w3.org/2000/svg"
 width="300.000000pt" height="166.000000pt" viewBox="0 0 300.000000 166.000000"
 preserveAspectRatio="xMidYMid meet">
<metadata>
Created by potrace 1.10, written by Peter Selinger 2001-2011
</metadata>
<g transform="translate(0.000000,166.000000) scale(0.100000,-0.100000)"
fill="#000000" stroke="none">
<path d="M2150 1160 c-102 -60 -189 -110 -193 -112 -7 -3 -12 -477 -5 -483 2
-2 86 -51 187 -109 143 -83 186 -104 197 -95 11 9 14 60 16 231 l3 220 185
109 c119 69 185 114 185 124 0 19 -345 226 -373 224 -9 0 -100 -49 -202 -109z
m385 -25 c83 -47 149 -88 148 -91 -1 -3 -19 -16 -41 -27 -21 -12 -105 -60
-185 -106 l-147 -84 0 -218 0 -218 -33 22 c-18 12 -93 56 -165 97 l-132 75 0
220 1 220 186 107 c133 76 192 104 203 98 8 -5 83 -47 165 -95z"/>
<path d="M675 1187 c-3 -7 -4 -35 -3 -62 l3 -49 -117 3 c-158 4 -158 4 -158
-69 l0 -59 -67 -3 -68 -3 -3 -62 c-3 -54 -6 -63 -22 -63 -44 0 -50 -10 -50
-76 0 -122 62 -251 144 -299 124 -73 371 -68 534 11 99 48 204 164 256 280 16
38 22 42 61 46 51 6 99 38 121 79 15 30 15 30 -20 44 -20 8 -56 15 -81 15 -37
0 -45 3 -45 18 0 23 -67 102 -86 102 -38 0 -66 -147 -35 -184 11 -13 9 -17
-14 -26 -49 -19 -54 -15 -57 53 l-3 62 -65 1 -65 1 -3 127 -3 126 -75 0 c-51
0 -76 -4 -79 -13z m133 -59 l-3 -53 -52 -3 -53 -3 0 55 0 56 56 0 55 0 -3 -52z
m-268 -128 l0 -50 -60 0 -60 0 0 50 0 50 60 0 60 0 0 -50z m140 0 l0 -50 -60
0 -60 0 0 50 0 50 60 0 60 0 0 -50z m130 0 l0 -50 -60 0 -60 0 0 50 0 50 60 0
60 0 0 -50z m294 -9 c10 -11 24 -36 31 -57 l13 -37 60 -1 c67 -1 82 -9 66 -33
-20 -31 -62 -55 -105 -61 -44 -5 -44 -5 -83 -86 -29 -60 -57 -98 -105 -146
-81 -80 -152 -115 -286 -142 -89 -18 -110 -19 -190 -9 -50 7 -113 22 -143 36
-53 25 -70 46 -29 38 13 -3 52 5 87 17 l63 21 24 -30 c27 -34 82 -71 107 -71
12 0 7 8 -15 28 -17 15 -41 36 -52 47 -12 11 -33 27 -47 36 -23 14 -28 14 -65
-2 -22 -9 -61 -20 -87 -23 -43 -6 -50 -5 -71 18 -46 50 -87 237 -56 257 8 5
188 9 400 9 414 0 457 4 444 44 -21 61 -13 166 13 166 5 0 17 -9 26 -19z
m-704 -122 l0 -49 -60 0 -60 0 0 49 0 50 53 3 c28 2 55 2 60 0 4 -2 7 -25 7
-53z m138 4 l3 -53 -60 0 -61 0 0 55 0 56 58 -3 57 -3 3 -52z m140 0 l3 -53
-60 0 -59 0 -4 51 c-1 28 -1 53 2 55 2 3 29 4 60 2 l55 -3 3 -52z m137 2 l0
-50 -60 0 -60 0 -3 39 c-5 62 0 67 65 64 l58 -3 0 -50z m96 45 l39 0 0 -50 0
-50 -60 0 -60 0 0 48 c0 53 6 66 28 57 7 -3 31 -5 53 -5z"/>
<path d="M510 650 c-38 -38 -15 -90 39 -90 34 0 51 17 51 51 0 54 -52 77 -90
39z m70 -15 c27 -32 -23 -82 -55 -55 -15 13 -20 51 -8 63 12 12 50 7 63 -8z"/>
<path d="M530 616 c0 -21 20 -30 33 -17 9 9 8 14 -3 21 -21 14 -30 12 -30 -4z"/>
<path d="M2645 942 l-80 -48 -3 -110 -3 -109 -89 -50 -90 -50 0 -102 c0 -57 2
-103 5 -103 4 0 43 22 88 49 45 26 126 74 180 105 l97 57 0 204 c0 158 -3 205
-12 205 -7 -1 -49 -22 -93 -48z m68 -174 l-3 -173 -147 -86 -148 -87 -3 62
c-4 70 -6 67 112 134 l76 42 0 109 0 109 53 30 c28 17 54 31 57 31 3 1 4 -77
3 -171z"/>
<path d="M1700 940 l0 -40 -165 0 -165 0 0 -75 0 -76 165 3 165 3 0 -40 0 -40
75 76 76 75 -76 77 -75 77 0 -40z m68 -68 c18 -16 32 -35 32 -43 0 -8 -16 -31
-35 -49 -30 -29 -37 -32 -45 -20 -7 12 -40 16 -152 20 -79 3 -149 9 -155 13
-16 10 -17 63 -2 73 6 3 71 8 144 9 73 2 142 8 152 14 25 15 26 14 61 -17z"/>
</g>
</svg>
